HIERARCHY
ROOT Hips
{
    OFFSET 0.000000 0.000000 0.000000
    CHANNELS 6 Xposition Yposition Zposition Zrotation Xrotation Yrotation
    JOINT Spine
    {
        OFFSET -0.000000 7.284621 0.000000
        CHANNELS 3 Zrotation Xrotation Yrotation
        JOINT Spine1
        {
            OFFSET -0.000000 19.968920 0.000000
            CHANNELS 3 Zrotation Xrotation Yrotation
            JOINT Neck
            {
                OFFSET -0.000000 21.745657 0.000000
                CHANNELS 3 Zrotation Xrotation Yrotation
                JOINT Head
                {
                    OFFSET -0.000000 13.769711 1.776737
                    CHANNELS 3 Zrotation Xrotation Yrotation
                    End Site
                    {
                        OFFSET -0.000000 17.767368 0.000000
                    }
                }
            }
            JOINT LeftShoulder
            {
                OFFSET 3.594505 17.711157 -0.013107
                CHANNELS 3 Zrotation Xrotation Yrotation
                JOINT LeftArm
                {
                    OFFSET 12.210003 0.000000 0.000000
                    CHANNELS 3 Zrotation Xrotation Yrotation
                    JOINT LeftForeArm
                    {
                        OFFSET 24.535166 0.000000 0.000000
                        CHANNELS 3 Zrotation Xrotation Yrotation
                        JOINT LeftHand
                        {
                            OFFSET 20.235195 0.000000 0.000000
                            CHANNELS 3 Zrotation Xrotation Yrotation
                            JOINT LeftHandThumb1
                            {
                                OFFSET 1.906737 -2.166747 3.033446
                                CHANNELS 3 Zrotation Xrotation Yrotation
                                JOINT LeftHandThumb2
                                {
                                    OFFSET 2.043247 0.000000 1.332553
                                    CHANNELS 3 Zrotation Xrotation Yrotation
                                    JOINT LeftHandThumb3
                                    {
                                        OFFSET 2.665105 0.000000 0.000000
                                        CHANNELS 3 Zrotation Xrotation Yrotation
                                        End Site
                                        {
                                            OFFSET 2.367595 0.000000 0.000000
                                        }
                                    }
                                }
                            }
                            JOINT LeftHandIndex1
                            {
                                OFFSET 7.800290 0.000000 3.033446
                                CHANNELS 3 Zrotation Xrotation Yrotation
                                JOINT LeftHandIndex2
                                {
                                    OFFSET 4.441842 0.000000 0.000000
                                    CHANNELS 3 Zrotation Xrotation Yrotation
                                    JOINT LeftHandIndex3
                                    {
                                        OFFSET 2.220921 0.000000 0.000000
                                        CHANNELS 3 Zrotation Xrotation Yrotation
                                        End Site
                                        {
                                            OFFSET 1.972996 0.000000 0.000000
                                        }
                                    }
                                }
                            }
                            JOINT LeftHandMiddle1
                            {
                                OFFSET 7.800290 0.000000 1.005371
                                CHANNELS 3 Zrotation Xrotation Yrotation
                                JOINT LeftHandMiddle2
                                {
                                    OFFSET 4.886026 0.000000 0.000000
                                    CHANNELS 3 Zrotation Xrotation Yrotation
                                    JOINT LeftHandMiddle3
                                    {
                                        OFFSET 2.665105 0.000000 0.000000
                                        CHANNELS 3 Zrotation Xrotation Yrotation
                                        End Site
                                        {
                                            OFFSET 2.367595 0.000000 0.000000
                                        }
                                    }
                                }
                            }
                            JOINT LeftHandRing1
                            {
                                OFFSET 7.366940 0.000000 -1.005371
                                CHANNELS 3 Zrotation Xrotation Yrotation
                                JOINT LeftHandRing2
                                {
                                    OFFSET 4.441842 0.000000 0.000000
                                    CHANNELS 3 Zrotation Xrotation Yrotation
                                    JOINT LeftHandRing3
                                    {
                                        OFFSET 2.220921 0.000000 0.000000
                                        CHANNELS 3 Zrotation Xrotation Yrotation
                                        End Site
                                        {
                                            OFFSET 1.972996 0.000000 0.000000
                                        }
                                    }
                                }
                            }
                            JOINT LeftHandPinky1
                            {
                                OFFSET 6.933591 0.000000 -3.033446
                                CHANNELS 3 Zrotation Xrotation Yrotation
                                JOINT LeftHandPinky2
                                {
                                    OFFSET 3.553473 0.000000 0.000000
                                    CHANNELS 3 Zrotation Xrotation Yrotation
                                    JOINT LeftHandPinky3
                                    {
                                        OFFSET 1.776737 0.000000 0.000000
                                        CHANNELS 3 Zrotation Xrotation Yrotation
                                        End Site
                                        {
                                            OFFSET 1.578397 0.000000 0.000000
                                        }
                                    }
                                }
                            }
                        }
                    }
                }
            }
            JOINT RightShoulder
            {
                OFFSET -3.500468 17.711157 -0.013107
                CHANNELS 3 Zrotation Xrotation Yrotation
                JOINT RightArm
                {
                    OFFSET -12.210003 0.000000 0.000000
                    CHANNELS 3 Zrotation Xrotation Yrotation
                    JOINT RightForeArm
                    {
                        OFFSET -24.535166 0.000000 0.000000
                        CHANNELS 3 Zrotation Xrotation Yrotation
                        JOINT RightHand
                        {
                            OFFSET -20.235195 0.000000 0.000000
                            CHANNELS 3 Zrotation Xrotation Yrotation
                            JOINT RightHandThumb1
                            {
                                OFFSET -1.906737 -2.166747 3.033446
                                CHANNELS 3 Zrotation Xrotation Yrotation
                                JOINT RightHandThumb2
                                {
                                    OFFSET -2.043247 0.000000 1.332553
                                    CHANNELS 3 Zrotation Xrotation Yrotation
                                    JOINT RightHandThumb3
                                    {
                                        OFFSET -2.665105 0.000000 0.000000
                                        CHANNELS 3 Zrotation Xrotation Yrotation
                                        End Site
                                        {
                                            OFFSET -2.367595 0.000000 0.000000
                                        }
                                    }
                                }
                            }
                            JOINT RightHandIndex1
                            {
                                OFFSET -7.800290 0.000000 3.033446
                                CHANNELS 3 Zrotation Xrotation Yrotation
                                JOINT RightHandIndex2
                                {
                                    OFFSET -4.441842 0.000000 0.000000
                                    CHANNELS 3 Zrotation Xrotation Yrotation
                                    JOINT RightHandIndex3
                                    {
                                        OFFSET -2.220921 0.000000 0.000000
                                        CHANNELS 3 Zrotation Xrotation Yrotation
                                        End Site
                                        {
                                            OFFSET -1.972996 0.000000 0.000000
                                        }
                                    }
                                }
                            }
                            JOINT RightHandMiddle1
                            {
                                OFFSET -7.800290 0.000000 1.005371
                                CHANNELS 3 Zrotation Xrotation Yrotation
                                JOINT RightHandMiddle2
                                {
                                    OFFSET -4.886026 0.000000 0.000000
                                    CHANNELS 3 Zrotation Xrotation Yrotation
                                    JOINT RightHandMiddle3
                                    {
                                        OFFSET -2.665105 0.000000 0.000000
                                        CHANNELS 3 Zrotation Xrotation Yrotation
                                        End Site
                                        {
                                            OFFSET -2.367595 0.000000 0.000000
                                        }
                                    }
                                }
                            }
                            JOINT RightHandRing1
                            {
                                OFFSET -7.366940 0.000000 -1.005371
                                CHANNELS 3 Zrotation Xrotation Yrotation
                                JOINT RightHandRing2
                                {
                                    OFFSET -4.441842 0.000000 0.000000
                                    CHANNELS 3 Zrotation Xrotation Yrotation
                                    JOINT RightHandRing3
                                    {
                                        OFFSET -2.220921 0.000000 0.000000
                                        CHANNELS 3 Zrotation Xrotation Yrotation
                                        End Site
                                        {
                                            OFFSET -1.972996 0.000000 0.000000
                                        }
                                    }
                                }
                            }
                            JOINT RightHandPinky1
                            {
                                OFFSET -6.933591 0.000000 -3.033446
                                CHANNELS 3 Zrotation Xrotation Yrotation
                                JOINT RightHandPinky2
                                {
                                    OFFSET -3.553473 0.000000 0.000000
                                    CHANNELS 3 Zrotation Xrotation Yrotation
                                    JOINT RightHandPinky3
                                    {
                                        OFFSET -1.776737 0.000000 0.000000
                                        CHANNELS 3 Zrotation Xrotation Yrotation
                                        End Site
                                        {
                                            OFFSET -1.578397 0.000000 0.000000
                                        }
                                    }
                                }
                            }
                        }
                    }
                }
            }
        }
    }
    JOINT LeftUpLeg
    {
        OFFSET 8.883684 0.000000 0.000000
        CHANNELS 3 Zrotation Xrotation Yrotation
        JOINT LeftLeg
        {
            OFFSET -0.000000 -38.184189 0.000000
            CHANNELS 3 Zrotation Xrotation Yrotation
            JOINT LeftFoot
            {
                OFFSET -0.000000 -35.840691 0.000000
                CHANNELS 3 Zrotation Xrotation Yrotation
                JOINT LeftToeBase
                {
                    OFFSET -0.000000 -5.774395 13.325527
                    CHANNELS 3 Zrotation Xrotation Yrotation
                    End Site
                    {
                        OFFSET -0.000000 0.000000 3.553473
                    }
                }
            }
        }
    }
    JOINT RightUpLeg
    {
        OFFSET -8.883684 0.000000 0.000000
        CHANNELS 3 Zrotation Xrotation Yrotation
        JOINT RightLeg
        {
            OFFSET -0.000000 -38.184189 0.000000
            CHANNELS 3 Zrotation Xrotation Yrotation
            JOINT RightFoot
            {
                OFFSET -0.000000 -35.840691 0.000000
                CHANNELS 3 Zrotation Xrotation Yrotation
                JOINT RightToeBase
                {
                    OFFSET -0.000000 -5.774395 13.325527
                    CHANNELS 3 Zrotation Xrotation Yrotation
                    End Site
                    {
                        OFFSET -0.000000 0.000000 3.553473
                    }
                }
            }
        }
    }
}
MOTION
Frames:    5
Frame Time:    0.008333
3.231626    81.212250    109.387566    1.698550    0.442934    -3.592117    0.191024    -3.192797    -1.294883    -3.166090    6.085404    -0.265109    3.780740    -0.046390    -3.459243    -1.672138    5.139733    -2.782264    1.360858    9.576962    -7.256142    -81.181335    34.813629    -9.041189    7.622422    -8.181506    3.052436    -8.678229    -42.462795    -4.645257    4.526913    1.345175    7.176707    -0.000000    0.000000    5.405977    -0.000000    0.000000    10.811954    -5.006414    0.220552    -2.516048    -10.022515    0.000000    0.000000    -5.011258    0.000000    0.000000    -13.709293    -0.869751    1.078931    -27.461529    0.000000    0.000000    -13.730768    0.000000    0.000000    -22.333120    -2.489239    4.470058    -44.900551    0.000000    0.000000    -22.450279    0.000000    0.000000    -31.120750    -4.667160    7.675711    -62.868023    0.000000    0.000000    -31.434019    0.000000    0.000000    -3.722183    1.246914    0.957188    90.777443    45.750648    -5.039435    -2.386096    -26.111938    5.851060    13.124842    -62.467045    7.584167    -1.156396    0.015259    -0.892340    0.000000    0.000000    -0.952326    0.000000    0.000000    -1.904651    9.422915    0.000000    -0.000000    18.845829    0.000000    -0.000000    9.422915    0.000000    -0.000000    21.797401    0.000000    -0.000000    43.594791    0.000000    -0.000000    21.797401    0.000000    -0.000000    34.171883    0.000000    -0.000000    68.343773    0.000000    -0.000000    34.171883    0.000000    -0.000000    46.921352    0.000000    -0.000000    93.842697    0.000000    -0.000000    46.921352    0.000000    -0.000000    -4.040950    0.152293    -2.014004    -1.008888    1.621293    -1.807150    4.212820    -1.185873    5.870058    0.214507    0.364483    -0.424957    -1.161332    -0.013884    4.346715    2.156194    4.355980    0.278259    -4.606077    -4.003532    -6.833878    0.729829    -0.275785    -1.235049    
3.238741    81.211945    109.392929    1.694562    0.415157    -3.572716    0.175884    -3.201441    -1.304028    -3.156589    6.118701    -0.267573    3.778548    -0.034216    -3.454355    -1.664034    5.093081    -2.779172    1.355903    9.571796    -7.273984    -81.170441    34.824795    -9.040095    7.610571    -8.218992    3.041863    -8.674882    -42.463634    -4.623451    4.523959    1.346465    7.175409    -0.000000    0.000000    5.404840    -0.000000    0.000000    10.809680    -4.998223    0.221554    -2.531626    -10.006239    0.000000    0.000000    -5.003119    0.000000    0.000000    -13.697646    -0.860600    1.052077    -27.437233    0.000000    0.000000    -13.718613    0.000000    0.000000    -22.318758    -2.470151    4.433344    -44.868214    0.000000    0.000000    -22.434109    0.000000    0.000000    -31.104361    -4.636287    7.630523    -62.827408    0.000000    0.000000    -31.413710    0.000000    0.000000    -3.714936    1.240885    0.958660    90.768402    45.745445    -5.039917    -2.394493    -26.136688    5.859029    13.154305    -62.487553    7.602002    -1.150869    0.019391    -0.895202    0.000000    0.000000    -0.955339    0.000000    0.000000    -1.910677    9.428692    0.000000    -0.000000    18.857384    0.000000    -0.000000    9.428692    0.000000    -0.000000    21.796391    0.000000    -0.000000    43.592777    0.000000    -0.000000    21.796391    0.000000    -0.000000    34.164089    0.000000    -0.000000    68.328178    0.000000    -0.000000    34.164089    0.000000    -0.000000    46.906563    0.000000    -0.000000    93.813126    0.000000    -0.000000    46.906563    0.000000    -0.000000    -4.043756    0.168089    -2.024475    -1.013084    1.650829    -1.776947    4.229580    -1.201046    5.834440    0.213003    0.356086    -0.424063    -1.159369    0.005139    4.353807    2.150209    4.388659    0.252052    -4.594968    -4.030574    -6.835508    0.731071    -0.269156    -1.237346    
3.245976    81.211647    109.398064    1.690491    0.388028    -3.553726    0.161660    -3.209352    -1.313039    -3.148545    6.150280    -0.269944    3.777480    -0.023636    -3.449887    -1.655694    5.050002    -2.776366    1.350901    9.567496    -7.291343    -81.159286    34.836952    -9.040496    7.599855    -8.254500    3.033251    -8.666577    -42.464317    -4.597756    4.521809    1.346042    7.172493    -0.000000    0.000000    5.401735    -0.000000    0.000000    10.803471    -4.991764    0.223041    -2.551903    -9.993464    0.000000    0.000000    -4.996732    0.000000    0.000000    -13.687106    -0.849752    1.019274    -27.414944    0.000000    0.000000    -13.707468    0.000000    0.000000    -22.304964    -2.447946    4.389638    -44.836411    0.000000    0.000000    -22.418207    0.000000    0.000000    -31.088076    -4.600662    7.577508    -62.785824    0.000000    0.000000    -31.392904    0.000000    0.000000    -3.707663    1.234800    0.959929    90.757996    45.744480    -5.039511    -2.402249    -26.158831    5.866221    13.178803    -62.504570    7.614384    -1.144003    0.022526    -0.895403    0.000000    0.000000    -0.955654    0.000000    0.000000    -1.911309    9.438130    0.000000    -0.000000    18.876261    0.000000    -0.000000    9.438130    0.000000    -0.000000    21.800522    0.000000    -0.000000    43.601048    0.000000    -0.000000    21.800522    0.000000    -0.000000    34.162914    0.000000    -0.000000    68.325829    0.000000    -0.000000    34.162914    0.000000    -0.000000    46.899925    0.000000    -0.000000    93.799850    0.000000    -0.000000    46.899925    0.000000    -0.000000    -4.046771    0.183261    -2.033904    -1.016294    1.680278    -1.753480    4.244236    -1.216572    5.804855    0.211813    0.349347    -0.423386    -1.157695    0.023801    4.359107    2.144659    4.420191    0.229128    -4.584327    -4.056361    -6.838113    0.732187    -0.263249    -1.239407    
3.253433    81.211372    109.402740    1.686258    0.362014    -3.535494    0.149431    -3.215893    -1.321779    -3.143840    6.178994    -0.272184    3.778952    -0.016160    -3.446179    -1.647011    5.012929    -2.774117    1.347609    9.561756    -7.306912    -81.151405    34.851158    -9.040915    7.591844    -8.285053    3.028577    -8.650260    -42.464596    -4.566560    4.520689    1.343243    7.167227    -0.000000    0.000000    5.395873    -0.000000    0.000000    10.791747    -4.987507    0.225149    -2.578198    -9.985148    0.000000    0.000000    -4.992574    0.000000    0.000000    -13.677863    -0.836689    0.978779    -27.395018    0.000000    0.000000    -13.697509    0.000000    0.000000    -22.291697    -2.421653    4.336843    -44.804878    0.000000    0.000000    -22.402445    0.000000    0.000000    -31.071638    -4.558783    7.514286    -62.742317    0.000000    0.000000    -31.371159    0.000000    0.000000    -3.699810    1.228649    0.960538    90.744347    45.750607    -5.036788    -2.408424    -26.175417    5.872151    13.194848    -62.515591    7.617961    -1.134684    0.024104    -0.891191    0.000000    0.000000    -0.951578    0.000000    0.000000    -1.903155    9.454236    0.000000    -0.000000    18.908472    0.000000    -0.000000    9.454236    0.000000    -0.000000    21.813057    0.000000    -0.000000    43.626114    0.000000    -0.000000    21.813057    0.000000    -0.000000    34.171883    0.000000    -0.000000    68.343750    0.000000    -0.000000    34.171883    0.000000    -0.000000    46.905205    0.000000    -0.000000    93.810410    0.000000    -0.000000    46.905205    0.000000    -0.000000    -4.050198    0.197308    -2.041072    -1.017783    1.709377    -1.739929    4.255204    -1.232539    5.783613    0.211169    0.345162    -0.423212    -1.156749    0.041543    4.361726    2.140297    4.450264    0.212935    -4.575021    -4.080031    -6.843878    0.733073    -0.258962    -1.241033    
3.261166    81.211105    109.406891    1.681771    0.337563    -3.518443    0.139895    -3.220839    -1.329795    -3.143326    6.204050    -0.274239    3.783473    -0.012396    -3.443669    -1.637925    4.983713    -2.772757    1.344905    9.557786    -7.320329    -81.142868    34.866570    -9.044999    7.586248    -8.307761    3.027683    -8.624349    -42.465336    -4.531111    4.520427    1.338583    7.160177    -0.000000    0.000000    5.387943    -0.000000    0.000000    10.775887    -4.983430    0.227532    -2.607583    -9.977218    0.000000    0.000000    -4.988609    0.000000    0.000000    -13.668581    -0.822037    0.933216    -27.374865    0.000000    0.000000    -13.687432    0.000000    0.000000    -22.278288    -2.392163    4.277221    -44.772499    0.000000    0.000000    -22.386251    0.000000    0.000000    -31.055067    -4.511798    7.442683    -62.697342    0.000000    0.000000    -31.348671    0.000000    0.000000    -3.691823    1.222253    0.959979    90.727814    45.764259    -5.031818    -2.412705    -26.184111    5.876953    13.201684    -62.518623    7.612539    -1.121506    0.024073    -0.881432    0.000000    0.000000    -0.941977    0.000000    0.000000    -1.883954    9.477929    0.000000    -0.000000    18.955858    0.000000    -0.000000    9.477929    0.000000    -0.000000    21.833590    0.000000    -0.000000    43.667191    0.000000    -0.000000    21.833590    0.000000    -0.000000    34.189255    0.000000    -0.000000    68.378510    0.000000    -0.000000    34.189255    0.000000    -0.000000    46.919331    0.000000    -0.000000    93.838661    0.000000    -0.000000    46.919331    0.000000    -0.000000    -4.053956    0.210231    -2.045010    -1.017602    1.737199    -1.735816    4.262973    -1.248350    5.769599    0.210910    0.343224    -0.423230    -1.156470    0.058078    4.360618    2.136966    4.478223    0.203760    -4.566866    -4.101092    -6.851570    0.733575    -0.256969    -1.241943    
